<svg width="50" height="50" viewBox="0 0 50 50" fill="none" xmlns="http://www.w3.org/2000/svg">
<path d="M11.5628 36.7187C13.7503 35.191 15.9205 34.0191 18.0732 33.2031C20.226 32.3871 22.535 31.9792 25.0003 31.9792C27.4656 31.9792 29.7833 32.3871 31.9534 33.2031C34.1236 34.0191 36.3024 35.191 38.4899 36.7187C40.0177 34.8437 41.1028 32.9514 41.7451 31.0417C42.3875 29.1319 42.7087 27.118 42.7087 25C42.7087 19.9653 41.0159 15.7552 37.6305 12.3698C34.2451 8.98436 30.035 7.29166 25.0003 7.29166C19.9656 7.29166 15.7555 8.98436 12.3701 12.3698C8.9847 15.7552 7.29199 19.9653 7.29199 25C7.29199 27.118 7.62185 29.1319 8.28158 31.0417C8.9413 32.9514 10.035 34.8437 11.5628 36.7187ZM24.9906 26.5625C22.9832 26.5625 21.2937 25.8735 19.9222 24.4955C18.5507 23.1175 17.8649 21.4248 17.8649 19.4174C17.8649 17.41 18.5539 15.7205 19.9319 14.3489C21.3099 12.9774 23.0026 12.2917 25.01 12.2917C27.0174 12.2917 28.7069 12.9806 30.0784 14.3586C31.45 15.7366 32.1357 17.4293 32.1357 19.4368C32.1357 21.4442 31.4467 23.1337 30.0688 24.5052C28.6908 25.8767 26.9981 26.5625 24.9906 26.5625ZM25.0247 45.8333C22.1612 45.8333 19.4621 45.2864 16.9274 44.1927C14.3927 43.0989 12.1791 41.6059 10.2868 39.7135C8.39442 37.8212 6.90137 35.6117 5.80762 33.0851C4.71387 30.5585 4.16699 27.8588 4.16699 24.9861C4.16699 22.1134 4.71387 19.4184 5.80762 16.901C6.90137 14.3837 8.39442 12.1788 10.2868 10.2864C12.1791 8.39409 14.3886 6.90103 16.9152 5.80728C19.4418 4.71353 22.1415 4.16666 25.0142 4.16666C27.8869 4.16666 30.5819 4.71353 33.0993 5.80728C35.6166 6.90103 37.8215 8.39409 39.7139 10.2864C41.6062 12.1788 43.0993 14.3842 44.193 16.9027C45.2868 19.4212 45.8337 22.1121 45.8337 24.9756C45.8337 27.8391 45.2868 30.5382 44.193 33.0729C43.0993 35.6076 41.6062 37.8212 39.7139 39.7135C37.8215 41.6059 35.6161 43.0989 33.0976 44.1927C30.5791 45.2864 27.8882 45.8333 25.0247 45.8333ZM25.0003 42.7083C26.91 42.7083 28.7764 42.4305 30.5993 41.875C32.4222 41.3194 34.2191 40.3472 35.9899 38.9583C34.2191 37.7083 32.4135 36.7535 30.5732 36.0937C28.733 35.434 26.8753 35.1042 25.0003 35.1042C23.1253 35.1042 21.2677 35.434 19.4274 36.0937C17.5871 36.7535 15.7816 37.7083 14.0107 38.9583C15.7816 40.3472 17.5784 41.3194 19.4014 41.875C21.2243 42.4305 23.0906 42.7083 25.0003 42.7083ZM25.0003 23.4375C26.1809 23.4375 27.1444 23.0642 27.8909 22.3177C28.6375 21.5712 29.0107 20.6076 29.0107 19.4271C29.0107 18.2465 28.6375 17.283 27.8909 16.5364C27.1444 15.7899 26.1809 15.4167 25.0003 15.4167C23.8198 15.4167 22.8562 15.7899 22.1097 16.5364C21.3632 17.283 20.9899 18.2465 20.9899 19.4271C20.9899 20.6076 21.3632 21.5712 22.1097 22.3177C22.8562 23.0642 23.8198 23.4375 25.0003 23.4375Z" fill="white"/>
</svg>
