<svg xmlns="http://www.w3.org/2000/svg" version="1.1" xmlns:xlink="http://www.w3.org/1999/xlink" xmlns:svgjs="http://svgjs.dev/svgjs" width="1500" height="276" viewBox="0 0 1500 276"><g transform="matrix(1,0,0,1,-0.9090909090909918,-1.8495437819303788)"><svg viewBox="0 0 396 73" data-background-color="#171717" preserveAspectRatio="xMidYMid meet" height="276" width="1500" xmlns="http://www.w3.org/2000/svg" xmlns:xlink="http://www.w3.org/1999/xlink"><g id="tight-bounds" transform="matrix(1,0,0,1,0.2400000000000091,0.4891909278294122)"><svg viewBox="0 0 395.52 72.02161814434118" height="72.02161814434118" width="395.52"><g><svg viewBox="0 0 531.3635680935103 96.75784788897003" height="72.02161814434118" width="395.52"><g transform="matrix(1,0,0,1,0,13.372466676406134)"><svg viewBox="0 0 395.52 70.01291453615777" height="70.01291453615777" width="395.52"><g id="textblocktransform"><svg viewBox="0 0 395.52 70.01291453615777" height="70.01291453615777" width="395.52" id="textblock"><g><svg viewBox="0 0 395.52 70.01291453615777" height="70.01291453615777" width="395.52"><g transform="matrix(1,0,0,1,0,0)"><svg width="395.52" viewBox="0.7 -35.8 201.88000000000002 36.349999999999994" height="70.01291453615777" data-palette-color="#fbfbf8"><g class="wordmark-text-0" data-fill-palette-color="primary" id="text-0"><path d="M8.25-25.7L13.5-25.7 13.5-22.4 8.25-22.4 8.25-5.3Q8.25-4.4 8.88-3.78 9.5-3.15 10.5-3.15L10.5-3.15Q11.45-3.15 13.4-3.6L13.4-3.6 13.85 0Q10.75 0.55 9.15 0.55L9.15 0.55Q4.2 0.55 4.2-3.5L4.2-3.5 4.2-22.4 0.7-22.4 0.7-25.7 4.2-25.7 4.2-30.95 8.25-32.8 8.25-25.7ZM40-11.8L40-11.65 21.05-11.65Q21.1-8.35 22.45-6.4L22.45-6.4Q24.6-3.25 28.65-3.25L28.65-3.25Q33.65-3.25 35.4-8L35.4-8 39.5-8Q38.7-3.95 35.8-1.7 32.9 0.55 28.5 0.55L28.5 0.55Q22.65 0.55 19.55-3.45L19.55-3.45Q16.8-6.95 16.8-12.7L16.8-12.7Q16.8-19.35 20.4-23.05L20.4-23.05Q23.55-26.25 28.55-26.25L28.55-26.25Q32.2-26.25 34.97-24.5 37.75-22.75 38.95-19.7L38.95-19.7Q40-17.1 40-11.8L40-11.8ZM21.2-15L35.6-15Q35.6-18.35 33.62-20.43 31.65-22.5 28.55-22.5L28.55-22.5Q25.4-22.5 23.42-20.48 21.45-18.45 21.2-15L21.2-15ZM65.25-17.1L65.25-17.1 61.15-17.1Q60.4-22.5 55.05-22.5L55.05-22.5Q51.7-22.5 49.8-19.85 47.9-17.2 47.9-12.5L47.9-12.5Q47.9-7.85 50.15-5.4L50.15-5.4Q52.05-3.25 55.25-3.25L55.25-3.25Q60.4-3.25 61.4-8.85L61.4-8.85 65.55-8.85Q65.15-4.05 62.1-1.6L62.1-1.6Q59.45 0.55 55.15 0.55L55.15 0.55Q49.5 0.55 46.35-3.45L46.35-3.45Q43.65-6.9 43.65-12.5L43.65-12.5Q43.65-19.2 47.2-23L47.2-23Q50.25-26.25 55.1-26.25L55.1-26.25Q60.7-26.25 63.5-22.5L63.5-22.5Q64.95-20.55 65.25-17.1ZM70.14 0L70.14-35.8 74.19-35.8 74.19-22.1Q76.04-24.4 77.89-25.33 79.74-26.25 82.49-26.25L82.49-26.25Q86.24-26.25 88.39-24.38 90.54-22.5 90.54-19.25L90.54-19.25 90.54 0 86.49 0 86.49-17.6Q86.49-20.3 84.84-21.55L84.84-21.55Q83.29-22.7 81.19-22.7L81.19-22.7Q78.04-22.7 76.12-20.35 74.19-18 74.19-14.1L74.19-14.1 74.19 0 70.14 0Z" fill="#fbfbf8" data-fill-palette-color="primary"></path><path d="M107.99-25.7L113.24-25.7 113.24-22.4 107.99-22.4 107.99-5.3Q107.99-4.4 108.61-3.78 109.24-3.15 110.24-3.15L110.24-3.15Q111.19-3.15 113.14-3.6L113.14-3.6 113.59 0Q110.49 0.55 108.89 0.55L108.89 0.55Q103.94 0.55 103.94-3.5L103.94-3.5 103.94-22.4 100.44-22.4 100.44-25.7 103.94-25.7 103.94-30.95 107.99-32.8 107.99-25.7ZM140.84-3.45L140.84-3.45 140.84-0.15Q139.13 0.45 138.19 0.45L138.19 0.45Q134.19 0.45 133.84-3.2L133.84-3.2Q131.09 0.55 125.09 0.55L125.09 0.55Q120.94 0.55 118.64-1.75L118.64-1.75Q116.64-3.75 116.64-6.9L116.64-6.9Q116.64-10.5 119.19-12.45L119.19-12.45Q120.64-13.55 125.24-14.6L125.24-14.6 133.63-16.5 133.69-18.65Q133.69-22.5 127.88-22.5L127.88-22.5Q122.34-22.5 121.94-18L121.94-18 117.79-18Q117.94-21.4 119.49-23.2L119.49-23.2Q122.14-26.25 128.09-26.25L128.09-26.25Q137.74-26.25 137.74-19.25L137.74-19.25 137.74-4.9Q137.74-3 139.38-3L139.38-3Q139.59-3 140.44-3.3L140.44-3.3Q140.74-3.4 140.84-3.45ZM133.69-8.65L133.69-13.15 127.09-11.45Q123.54-10.55 122.21-9.6 120.89-8.65 120.89-6.95L120.89-6.95Q120.89-3 125.99-3L125.99-3Q129.59-3 132.09-5.35L132.09-5.35Q133.69-6.8 133.69-8.65L133.69-8.65ZM145.23-35.8L149.33-35.8 149.33 0 145.23 0 145.23-35.8ZM177.93-11.8L177.93-11.65 158.98-11.65Q159.03-8.35 160.38-6.4L160.38-6.4Q162.53-3.25 166.58-3.25L166.58-3.25Q171.58-3.25 173.33-8L173.33-8 177.43-8Q176.63-3.95 173.73-1.7 170.83 0.55 166.43 0.55L166.43 0.55Q160.58 0.55 157.48-3.45L157.48-3.45Q154.73-6.95 154.73-12.7L154.73-12.7Q154.73-19.35 158.33-23.05L158.33-23.05Q161.48-26.25 166.48-26.25L166.48-26.25Q170.13-26.25 172.91-24.5 175.68-22.75 176.88-19.7L176.88-19.7Q177.93-17.1 177.93-11.8L177.93-11.8ZM159.13-15L173.53-15Q173.53-18.35 171.56-20.43 169.58-22.5 166.48-22.5L166.48-22.5Q163.33-22.5 161.35-20.48 159.38-18.45 159.13-15L159.13-15ZM201.78-18.65L201.78-18.65 197.28-18.65Q197.08-22.5 192.13-22.5L192.13-22.5Q189.58-22.5 188.1-21.53 186.63-20.55 186.63-18.9L186.63-18.9Q186.63-16.4 191.38-15.3L191.38-15.3 195.33-14.4Q199.18-13.5 200.88-11.85 202.58-10.2 202.58-7.35L202.58-7.35Q202.58-3.7 199.73-1.58 196.88 0.55 192.03 0.55L192.03 0.55Q186.73 0.55 183.98-1.95L183.98-1.95Q181.68-4 181.53-7.4L181.53-7.4 186.18-7.4Q186.58-5.65 187.28-4.85L187.28-4.85Q188.63-3.25 192.33-3.25L192.33-3.25Q195.08-3.25 196.7-4.28 198.33-5.3 198.33-7L198.33-7Q198.33-9.55 194.38-10.5L194.38-10.5 190.53-11.4Q186.13-12.45 184.38-13.9L184.38-13.9Q182.38-15.55 182.38-18.65L182.38-18.65Q182.38-22.15 185.05-24.2 187.73-26.25 192.23-26.25L192.23-26.25Q196.93-26.25 199.53-23.9L199.53-23.9Q201.78-21.85 201.78-18.65Z" fill="#007bff" data-fill-palette-color="accent"></path></g></svg></g></svg></g></svg></g></svg></g><g transform="matrix(1,0,0,1,412.04836881203795,0)"><svg viewBox="0 0 119.31519928147227 96.75784788897003" height="96.75784788897003" width="119.31519928147227"><g><svg xmlns="http://www.w3.org/2000/svg" xmlns:xlink="http://www.w3.org/1999/xlink" version="1.1" x="0" y="0" viewBox="8.8 18.1 82.00327854876151 66.5" enable-background="new 0 0 100 100" xml:space="preserve" height="96.75784788897003" width="119.31519928147227" class="icon-icon-0" data-fill-palette-color="accent" id="icon-0"><path d="M85.9 18.1H13.8C11 18.1 8.8 20.3 8.8 23.1V80C8.8 82.5 10.9 84.6 13.4 84.6H47C48.1 84.6 49 84.2 49.8 83.6 50.6 84.2 51.5 84.6 52.6 84.6H86.2C88.7 84.6 90.8 82.5 90.8 80V23.1C90.9 20.3 88.7 18.1 85.9 18.1M48 79.9C48 80.4 47.6 80.8 47.1 80.8H13.5C13 80.8 12.6 80.4 12.6 79.9V76.1H48zM48 72.4H12.6V23.1C12.6 22.4 13.2 21.8 13.9 21.8H48zM87.2 79.9C87.2 80.4 86.8 80.8 86.3 80.8H52.7C52.2 80.8 51.8 80.4 51.8 79.9V76.1H87.2zM87.2 72.4H51.7V21.8H85.9C86.6 21.8 87.2 22.4 87.2 23.1zM80.2 41.9C80.2 42.9 79.4 43.7 78.4 43.7H60.3C59.3 43.7 58.5 42.9 58.5 41.9S59.3 40.1 60.3 40.1H78.4C79.4 40.1 80.2 40.9 80.2 41.9M80.2 51.9C80.2 52.9 79.4 53.7 78.4 53.7H60.3C59.3 53.7 58.5 52.9 58.5 51.9S59.3 50.1 60.3 50.1H78.4C79.4 50.1 80.2 50.9 80.2 51.9M80.2 62.3C80.2 63.3 79.4 64.1 78.4 64.1H60.3C59.3 64.1 58.5 63.3 58.5 62.3S59.3 60.5 60.3 60.5H78.4C79.4 60.5 80.2 61.3 80.2 62.3M80.2 31.7C80.2 32.7 79.4 33.5 78.4 33.5H60.3C59.3 33.5 58.5 32.7 58.5 31.7S59.3 29.9 60.3 29.9H78.4C79.4 29.8 80.2 30.6 80.2 31.7M19.3 41.9C19.3 40.9 20.1 40.1 21.1 40.1H39.2C40.2 40.1 41 40.9 41 41.9S40.2 43.7 39.2 43.7H21.1C20.1 43.8 19.3 43 19.3 41.9M19.3 51.9C19.3 50.9 20.1 50.1 21.1 50.1H39.2C40.2 50.1 41 50.9 41 51.9S40.2 53.7 39.2 53.7H21.1C20.1 53.8 19.3 52.9 19.3 51.9M19.3 62.3C19.3 61.3 20.1 60.5 21.1 60.5H39.2C40.2 60.5 41 61.3 41 62.3S40.2 64.1 39.2 64.1H21.1C20.1 64.2 19.3 63.4 19.3 62.3M19.3 31.7C19.3 30.7 20.1 29.9 21.1 29.9H39.2C40.2 29.9 41 30.7 41 31.7S40.2 33.5 39.2 33.5H21.1C20.1 33.5 19.3 32.7 19.3 31.7" fill="#007bff" data-fill-palette-color="accent"></path></svg></g></svg></g></svg></g><defs></defs></svg><rect width="395.52" height="72.02161814434118" fill="none" stroke="none" visibility="hidden"></rect></g></svg></g></svg>